<?xml version="1.0" encoding="UTF-8" standalone="no"?>
<svg
   xmlns:osb="http://www.openswatchbook.org/uri/2009/osb"
   xmlns:dc="http://purl.org/dc/elements/1.1/"
   xmlns:cc="http://creativecommons.org/ns#"
   xmlns:rdf="http://www.w3.org/1999/02/22-rdf-syntax-ns#"
   xmlns:svg="http://www.w3.org/2000/svg"
   xmlns="http://www.w3.org/2000/svg"
   xmlns:xlink="http://www.w3.org/1999/xlink"
   xmlns:sodipodi="http://sodipodi.sourceforge.net/DTD/sodipodi-0.dtd"
   xmlns:inkscape="http://www.inkscape.org/namespaces/inkscape"
   version="1.1"
   id="Calque_1"
   x="0px"
   y="0px"
   width="100px"
   height="100px"
   viewBox="0 0 100 100"
   enable-background="new 0 0 100 100"
   xml:space="preserve"
   inkscape:version="0.48.5 r10040"
   sodipodi:docname="iphone5.svg"><metadata
     id="metadata3055"><rdf:RDF><cc:Work
         rdf:about=""><dc:format>image/svg+xml</dc:format><dc:type
           rdf:resource="http://purl.org/dc/dcmitype/StillImage" /><dc:title></dc:title></cc:Work></rdf:RDF></metadata><defs
     id="defs3053"><linearGradient
       id="linearGradient5265"
       osb:paint="solid"><stop
         style="stop-color:#ffffff;stop-opacity:1;"
         offset="0"
         id="stop5267" /></linearGradient><linearGradient
       inkscape:collect="always"
       xlink:href="#linearGradient5265"
       id="linearGradient5269"
       x1="34.868042"
       y1="7.8994613"
       x2="55.796227"
       y2="8.0789948"
       gradientUnits="userSpaceOnUse"
       gradientTransform="translate(-2.8725314,-15.08079)" /></defs><sodipodi:namedview
     pagecolor="#ffffff"
     bordercolor="#666666"
     borderopacity="1"
     objecttolerance="10"
     gridtolerance="10"
     guidetolerance="10"
     inkscape:pageopacity="0"
     inkscape:pageshadow="2"
     inkscape:window-width="1357"
     inkscape:window-height="860"
     id="namedview3051"
     showgrid="false"
     inkscape:zoom="5.57"
     inkscape:cx="17.863555"
     inkscape:cy="50"
     inkscape:window-x="0"
     inkscape:window-y="0"
     inkscape:window-maximized="0"
     inkscape:current-layer="Calque_1" /><rect
     style="stroke:#ffffff;stroke-opacity:1;fill:#ffffff;fill-opacity:1"
     id="rect5275"
     width="19.56912"
     height="10.233393"
     x="41.113106"
     y="87.432678"
     ry="4.4883304" /><rect
     style="fill:url(#linearGradient5269);fill-opacity:1;fill-rule:evenodd;stroke:#ffffff;stroke-width:1px;stroke-linecap:butt;stroke-linejoin:miter;stroke-opacity:1"
     id="rect3057"
     width="24.057451"
     height="8.9766607"
     x="38.061039"
     y="-12.028726"
     ry="4.4883304"
     transform="scale(1,-1)" /><g
     id="g3041"><g
       id="g3043"><circle
         cx="50.974"
         cy="5.291"
         r="0.301"
         id="circle3045"
         fill="rgb(239, 240, 239)"
         d="m 51.274999,5.2909999 c 0,0.1662377 -0.134762,0.301 -0.301,0.301 -0.166238,0 -0.301,-0.1347623 -0.301,-0.301 0,-0.1662377 0.134762,-0.301 0.301,-0.301 0.166238,0 0.301,0.1347623 0.301,0.301 z" /><path
         d="M66.876,1.364v-0.25c0-0.181-0.147-0.328-0.328-0.328h-7.109c-0.181,0-0.328,0.146-0.328,0.328v0.228    H33.699c-3.441,0-6.23,2.79-6.23,6.23v6.563H27.36c-0.182,0-0.329,0.147-0.329,0.328v3.907c0,0.181,0.147,0.328,0.329,0.328h0.109    v4.969H27.36c-0.182,0-0.329,0.147-0.329,0.328v2.76c0,0.181,0.147,0.328,0.329,0.328h0.109v4.892H27.36    c-0.182,0-0.329,0.147-0.329,0.328v2.705c0,0.181,0.147,0.328,0.329,0.328h0.109v57.671c0,3.441,2.79,6.23,6.23,6.23h32.675    c3.441,0,6.23-2.789,6.23-6.23V7.572C72.604,4.301,70.082,1.62,66.876,1.364z M50.974,4.39c0.499,0,0.902,0.403,0.902,0.901    s-0.403,0.901-0.902,0.901c-0.498,0-0.901-0.403-0.901-0.901S50.476,4.39,50.974,4.39z M46.538,8.851    c0-0.423,0.342-0.766,0.765-0.766h7.313c0.423,0,0.766,0.342,0.766,0.766v0.33c0,0.422-0.343,0.765-0.766,0.765h-7.313    c-0.423,0-0.765-0.343-0.765-0.765V8.851z M50.072,97.33c-2.457,0-4.449-1.992-4.449-4.449c0-2.458,1.992-4.449,4.449-4.449    s4.448,1.991,4.448,4.449C54.521,95.338,52.529,97.33,50.072,97.33z M70.148,85.906H29.924V14.268h40.224V85.906z"
         id="path3047"
         fill="rgb(239, 240, 239)" /></g><path
       d="M51.007,91.262h-1.94c-0.423,0-0.765,0.342-0.765,0.765v1.968c0,0.422,0.342,0.765,0.765,0.765h1.94   c0.422,0,0.766-0.343,0.766-0.765v-1.968C51.772,91.604,51.429,91.262,51.007,91.262z M51.478,93.807c0,0.344-0.277,0.62-0.62,0.62   h-1.571c-0.343,0-0.62-0.276-0.62-0.62v-1.594c0-0.342,0.277-0.618,0.62-0.618h1.571c0.343,0,0.62,0.276,0.62,0.618V93.807z"
       id="path3049"
       fill="rgb(239, 240, 239)" /></g></svg>