<?xml version="1.0" encoding="utf-8"?>
<!-- Generator: Adobe Illustrator 17.0.2, SVG Export Plug-In . SVG Version: 6.00 Build 0)  -->
<!DOCTYPE svg PUBLIC "-//W3C//DTD SVG 1.1//EN" "http://www.w3.org/Graphics/SVG/1.1/DTD/svg11.dtd">
<svg version="1.1" id="Layer_1" xmlns="http://www.w3.org/2000/svg" xmlns:xlink="http://www.w3.org/1999/xlink" x="0px" y="0px"
	 width="512.098px" height="106.09px" viewBox="0 0 512.098 106.09" enable-background="new 0 0 512.098 106.09"
	 xml:space="preserve">
<path d="M512.098,26.948c-6.085,13.793-10.508,28.211-15.887,42.27c-3.437,8.983-6.526,18.1-9.97,27.08
	c-2.515,6.558-6.948,9.357-13.359,8.948c-1.317-0.084-2.749,0.118-2.984-1.8c-0.227-1.851,0.575-3.045,2.384-3.019
	c6.883,0.099,8.294-5.125,10.661-10.016c3.4-7.027,2.538-13.318-0.317-20.336c-5.37-13.2-9.875-26.753-14.698-40.175
	c-0.467-1.3-2.363-3.181,0.098-3.906c1.943-0.572,4.53-1.089,5.594,2.247c2.671,8.371,5.609,16.658,8.478,24.965
	c2.205,6.382,4.468,12.743,7.124,20.303c4.538-13.077,8.675-24.996,12.808-36.916c0.598-1.724,1.443-3.416,1.706-5.192
	c0.753-5.091,3.656-6.579,8.362-5.452C512.098,26.281,512.098,26.615,512.098,26.948z M134.205,72.793
	c0.021,0.832,0.171,1.684,0.042,2.492c-0.681,4.254,0.731,5.796,5.334,5.577c8.811-0.419,17.658-0.237,26.484-0.056
	c2.992,0.061,4.204-0.673,4.014-3.863c-0.152-2.549,0.032-4.579-3.579-4.196c-4.806,0.51-6.434-2.151-6.302-6.697
	c0.189-6.492,0.055-12.994,0.046-19.492c-0.008-5.463,2.517-9.552,6.924-12.539c4.031-2.732,8.404-3.117,12.787-1.057
	c4.139,1.946,4.458,5.941,4.505,9.827c0.094,7.83-0.102,15.665,0.093,23.491c0.11,4.443-1.751,6.789-6.119,6.392
	c-4.277-0.388-3.167,2.425-3.429,4.725c-0.365,3.207,1.398,3.409,3.895,3.382c8.996-0.099,17.995-0.121,26.99,0.007
	c2.907,0.041,4.581-0.244,4.472-3.923c-0.094-3.167-0.774-4.2-4.123-4.185c-6.672,0.028-7.209-0.888-7.355-7.608
	c-0.209-9.647,0.747-19.325-0.652-28.939c-1.119-7.686-5.567-12.223-13.154-13.513c-7.599-1.292-14.12,0.949-19.654,6.188
	c-1.614,1.528-3.068,3.224-5.174,5.456c0-2.545-0.202-4.188,0.04-5.762c0.588-3.817-0.945-4.848-4.657-4.634
	c-5.646,0.326-11.327,0.186-16.989,0.041c-2.859-0.073-4.534,0.145-4.521,3.87c0.013,3.665,1.26,4.361,4.592,4.307
	c6.064-0.098,7.304,1.345,7.323,7.293c0.022,6.998,0.006,13.996,0.012,20.993c0.011,13.046,1.228,12.289-11.935,12.53
	L134.205,72.793z M457.115,4.239c0.003-2.19,0.395-4.315-3.107-4.237c-3.127,0.07-2.923,1.878-2.921,3.955
	c0.02,20.987-0.082,41.976,0.068,62.962c0.063,8.849,4.907,13.588,13.632,13.826c1.708,0.047,4.262,1.144,4.515-2.225
	c0.241-3.208-1.976-2.718-3.956-2.897c-6.18-0.56-8.186-2.709-8.221-8.921c-0.058-10.327-0.016-20.654-0.016-30.981
	C457.109,25.226,457.101,14.733,457.115,4.239z M442.347,29.97c-0.011-1.853,0.678-4.112-2.612-4.206
	c-3.214-0.092-2.853,1.965-2.853,3.965c0.001,15.619-0.016,31.238,0.02,46.857c0.004,1.842-0.708,4.177,2.59,4.235
	c3.605,0.063,2.847-2.475,2.859-4.493c0.047-7.643,0.019-15.287,0.016-22.93C442.366,45.589,442.392,37.78,442.347,29.97z
	 M443.87,12.708c-0.109-2.406-1.693-3.828-4.237-3.88c-2.949-0.061-4.253,1.858-4.256,4.344c-0.003,2.422,1.699,3.776,4.246,3.886
	C442.328,16.887,443.992,15.409,443.87,12.708z M63.472,72.57c-6.889,11.44-23.036,13.259-33.021,4.309
	c-1.327-1.19-2.545-2.501-4.348-4.284c0,6.392-0.003,12.049,0.001,17.705c0.006,7.741,0.009,7.837,7.764,7.787
	c2.865-0.019,4.599,0.162,4.509,3.882c-0.078,3.227-0.872,4.185-4.151,4.115c-10.148-0.217-20.308-0.23-30.455,0.003
	c-3.268,0.075-3.795-1.078-3.769-3.975c0.025-2.867,0.526-4.094,3.807-4.072c7.496,0.05,7.905-0.531,7.914-7.858
	c0.018-16.644,0.015-33.288-0.001-49.932c-0.007-7.409-0.586-8.247-7.744-8.142c-3.547,0.052-3.519-1.614-3.616-4.213
	c-0.11-2.94,0.595-4.179,3.84-4.019c5.479,0.271,11.013,0.441,16.464-0.035c4.645-0.406,5.957,1.327,5.282,5.541
	c-0.155,0.969-0.023,1.985-0.023,2.996c1.727,0.272,1.896-1.218,2.531-1.994c9.706-11.873,27.771-10.995,35.44,2.384
	C71.382,45.829,71.288,59.591,63.472,72.57z M50.636,39.239c-1.467-4.04-4.363-7.057-9.122-7.411
	c-4.865-0.362-8.738,1.338-11.519,5.432c-3.02,4.446-3.69,9.486-3.828,13.469c-0.051,6.417,0.62,11.509,3.387,16.029
	c2.619,4.277,6.458,6.593,11.642,6.135c4.708-0.416,7.432-3.442,9.11-7.455C53.926,56.783,53.793,47.935,50.636,39.239z
	 M270.667,80.825c-5.48-0.302-11.007-0.356-16.479,0.014c-4.088,0.277-5.914-0.841-5.234-5.107c0.197-1.233,0.03-2.524,0.03-4.952
	c-4.734,6.606-9.604,11.02-17.072,11.491c-10.554,0.666-18.605-3.788-22.759-13.478c-4.609-10.751-4.74-21.731,0.206-32.403
	c7.385-15.935,24.902-18.886,37.263-6.456c0.546,0.549,0.754,1.432,1.12,2.159c0.41-0.241,0.82-0.482,1.23-0.723
	c0-6.071,0.203-12.151-0.061-18.21c-0.235-5.401-4.563-4.97-8.169-4.78c-3.372,0.178-4.803-0.715-4.566-4.37
	c0.165-2.544,0.812-3.521,3.449-3.466c6.493,0.135,12.998,0.219,19.483-0.055c3.344-0.142,4.144,0.965,4.122,4.177
	c-0.14,19.986-0.079,39.973-0.077,59.96c0.001,7.411,0.433,8.072,7.83,8.063c3.279-0.004,3.29,1.483,3.312,3.909
	C274.319,79.26,274.21,81.02,270.667,80.825z M245.069,37.235c-3.283-4.41-7.673-6.175-13.075-5.246
	c-4.911,0.845-7.174,4.505-8.557,8.742c-1.186,3.636-1.595,7.45-1.258,11.352c-0.285,4.293,0.087,8.548,1.592,12.681
	c1.516,4.162,3.974,7.343,8.589,8.057c4.996,0.773,9.174-0.924,12.312-4.897C250.306,60.791,250.49,44.516,245.069,37.235z
	 M135.059,64.494c-0.495,2.771-0.642,5.605-0.943,8.409c0.001-0.002,0.089-0.11,0.089-0.11c-2.661,4.988-5.894,9.061-12.255,9.431
	c-6.629,0.385-12.384-0.507-14.946-8.133C100.552,81.749,92.289,83,83.378,82.05c-6.281-0.67-10.955-4.607-12.249-10.069
	c-1.799-7.589,0.371-13.974,6.079-17.602c4.868-3.094,10.516-3.967,15.964-5.36c3.229-0.826,6.441-1.658,9.298-3.418
	c3.285-2.024,4.812-5.067,4.308-8.875c-0.508-3.841-2.813-6.216-6.592-7.273c-5.398-1.51-12.25-0.459-17.014,3.069
	c4.986,0.161,7.579,2.304,7.281,7.175c-0.248,4.062-2.545,5.909-6.335,6.328c-5.202,0.575-8.821-1.54-10.18-5.929
	c-1.608-5.194,0.67-11.201,6.115-13.89c10.517-5.194,21.49-5.623,32.286-0.976c6.301,2.712,8.766,8.322,8.801,14.994
	c0.049,9.325,0,18.651,0.021,27.976c0.005,2.125-0.404,4.889,2.726,4.879c2.879-0.009,2.9-2.752,3.112-4.856
	c0.183-1.815,0.22-3.673,0.055-5.488c-0.226-2.484,0.877-2.935,3.157-3.109C134.034,59.334,135.794,60.383,135.059,64.494z
	 M106.745,50.772c-5.511,2.572-10.812,4.792-15.859,7.486c-3.729,1.991-5.327,7.537-3.487,11.375
	c1.941,4.05,5.563,4.157,9.388,3.359c4.914-1.026,7.65-4.347,9.168-8.844C107.359,59.989,107.001,55.696,106.745,50.772z
	 M330.411,52.208c0.064,18.621-11.678,30.079-30.852,30.103c-19.184,0.025-31.17-11.409-31.269-29.827
	c-0.098-18.229,12.083-30.144,30.995-30.319C318.12,21.99,330.348,33.792,330.411,52.208z M314.169,52.1
	c0.129-4.271-0.203-9.074-2.193-13.582c-2.376-5.381-6.588-8.356-12.458-8.36c-5.825-0.005-10.298,2.64-12.458,8.241
	c-3.545,9.189-3.566,18.492-0.086,27.703c2.116,5.6,6.538,8.228,12.366,8.429c5.799,0.2,10.307-2.981,12.743-8.67
	C313.889,61.643,314.229,57.193,314.169,52.1z M376.209,80.849c-4.551,0.142-2.252-3.497-3.626-5.813
	c-4.001,3.612-8.151,6-13.479,6.095c-12.508,0.224-18.432-4.072-21.424-16.219c-1.898-7.707-1.869-15.553-0.133-23.234
	c3.959-17.519,21.221-22.618,35.142-10.113c1.11-4.562,0.373-8.953,0.507-13.274c0.139-4.49-0.022-8.988,0.054-13.481
	c0.036-2.137-0.921-4.86,3.061-4.789c4.159,0.075,2.746,3.056,2.753,4.996c0.085,23.469,0.094,46.939-0.012,70.408
	C379.043,77.462,380.695,80.709,376.209,80.849z M373.296,53.194c-0.149-2.987-0.171-5.987-0.499-8.954
	c-0.179-1.622-0.785-3.221-1.355-4.773c-2.334-6.354-6.951-9.525-13.679-9.481c-6.744,0.044-11.546,3.222-13.62,9.562
	c-2.98,9.111-2.682,18.358,0.068,27.446c1.721,5.688,6.384,8.801,12.388,9.033c7.488,0.289,11.789-2.143,14.469-8.179
	C373.147,63.164,373.246,58.191,373.296,53.194z M425.67,80.85c-3.611,0.441-3.991-1.75-3.401-5.771
	c-6.739,6.619-13.971,6.214-21.146,5.947c-9.82-0.365-15.988-6.361-16.017-15.475c-0.028-8.607,6.217-15.031,15.584-15.561
	c5.981-0.338,11.994-0.238,17.989-0.114c2.599,0.054,3.438-0.792,3.473-3.411c0.083-6.045-0.14-11.837-6.616-14.857
	c-6.721-3.134-16.734-1.792-21.67,2.65c-0.975,0.878-1.405,3.393-3.792,1.55c-1.983-1.532-3.076-2.523-0.763-4.916
	c5.727-5.924,18.355-8.003,28.174-4.275c7.587,2.881,10.608,8.099,10.616,18.373c0.008,10.164,0.094,20.329-0.08,30.489
	C427.99,77.355,429.729,80.354,425.67,80.85z M421.892,56.556c-1.341-5.256-6.583-1.084-9.795-2.352
	c-0.144-0.057-0.33-0.007-0.496-0.005c-4.808,0.029-9.639-0.275-14.283,1.474c-4.794,1.806-6.301,5.54-6.208,10.262
	c0.087,4.444,1.941,7.692,6.381,9.026c5.547,1.666,11.194,1.744,16.669-0.027C420.772,72.797,424.176,65.511,421.892,56.556z"/>
</svg>
